HIERARCHY
ROOT Hips
{
	OFFSET 0.000000 0.000000 0.000000
	CHANNELS 6 Xposition Yposition Zposition Xrotation Yrotation Zrotation
	JOINT Chest
	{
		OFFSET 0.000000 0.009282 11.569106
		CHANNELS 3 Xrotation Yrotation Zrotation
		JOINT Chest2
		{
			OFFSET 0.000000 -0.016863 9.269641
			CHANNELS 3 Xrotation Yrotation Zrotation
			JOINT Chest3
			{
				OFFSET 0.000000 0.000000 8.374491
				CHANNELS 3 Xrotation Yrotation Zrotation
				JOINT Chest4
				{
					OFFSET 0.000000 0.000000 8.374493
					CHANNELS 3 Xrotation Yrotation Zrotation
					JOINT Neck
					{
						OFFSET 0.000000 -0.000001 12.152554
						CHANNELS 3 Xrotation Yrotation Zrotation
						JOINT Head
						{
							OFFSET 0.000000 -0.040100 7.802319
							CHANNELS 3 Xrotation Yrotation Zrotation
							End Site
							{
								OFFSET 0.000000 -0.020946 14.853096
							}
						}
					}
					JOINT RightCollar
					{
						OFFSET -2.894404 0.000000 6.791374
						CHANNELS 3 Xrotation Yrotation Zrotation
						JOINT RightShoulder
						{
							OFFSET -13.574684 0.000000 0.000000
							CHANNELS 3 Xrotation Yrotation Zrotation
							JOINT RightElbow
							{
								OFFSET -23.923903 0.000000 0.000000
								CHANNELS 3 Xrotation Yrotation Zrotation
								JOINT RightWrist
								{
									OFFSET -19.846718 -0.012765 0.000000
									CHANNELS 3 Xrotation Yrotation Zrotation
									End Site
									{
										OFFSET -14.973145 0.000000 0.000000
									}
								}
							}
						}
					}
					JOINT LeftCollar
					{
						OFFSET 2.894404 0.000000 6.791374
						CHANNELS 3 Xrotation Yrotation Zrotation
						JOINT LeftShoulder
						{
							OFFSET 13.574684 0.000000 0.000000
							CHANNELS 3 Xrotation Yrotation Zrotation
							JOINT LeftElbow
							{
								OFFSET 23.923903 0.000000 0.000000
								CHANNELS 3 Xrotation Yrotation Zrotation
								JOINT LeftWrist
								{
									OFFSET 19.846718 -0.012765 0.000000
									CHANNELS 3 Xrotation Yrotation Zrotation
									End Site
									{
										OFFSET 14.973145 0.000000 0.000000
									}
								}
							}
						}
					}
				}
			}
		}
	}
	JOINT RightHip
	{
		OFFSET -9.469263 -0.004642 0.045487
		CHANNELS 3 Xrotation Yrotation Zrotation
		JOINT RightKnee
		{
			OFFSET 0.000000 -0.002666 -40.478676
			CHANNELS 3 Xrotation Yrotation Zrotation
			JOINT RightAnkle
			{
				OFFSET 0.000000 -0.049110 -35.224068
				CHANNELS 3 Xrotation Yrotation Zrotation
				JOINT RightToe
				{
					OFFSET 0.000000 -12.539530 -6.151390
					CHANNELS 3 Xrotation Yrotation Zrotation
					End Site
					{
						OFFSET 0.000000 -5.044995 -1.291870
					}
				}
			}
		}
	}
	JOINT LeftHip
	{
		OFFSET 9.469263 -0.004642 0.045487
		CHANNELS 3 Xrotation Yrotation Zrotation
		JOINT LeftKnee
		{
			OFFSET 0.000000 -0.002666 -40.478676
			CHANNELS 3 Xrotation Yrotation Zrotation
			JOINT LeftAnkle
			{
				OFFSET 0.000000 -0.049110 -35.224068
				CHANNELS 3 Xrotation Yrotation Zrotation
				JOINT LeftToe
				{
					OFFSET 0.000000 -12.539530 -6.151390
					CHANNELS 3 Xrotation Yrotation Zrotation
					End Site
					{
						OFFSET 0.000000 -5.044995 -1.291870
					}
				}
			}
		}
	}
}
MOTION
Frames: 14
Frame Time: 0.016667
-13.792733 -2.547282 83.021782 0.237096 1.101678 -111.965242 3.752050 0.891632 1.285393 1.666447 0.424291 0.609861 1.666445 0.424291 0.609860 1.250253 0.316558 0.458553 16.063034 -0.634776 -1.169531 -6.356942 -0.733937 -2.358886 -10.342310 -9.930211 -2.505672 17.859058 -36.419354 -13.291961 66.495443 15.162057 77.757872 -39.824593 41.846267 65.511111 -6.879820 7.937853 -5.592328 22.512307 37.919008 11.212191 64.690361 -10.305627 -70.564344 -32.623897 -33.946105 -85.398825 1.507475 -2.464268 -10.729730 3.729858 -1.492454 -2.402644 -4.418954 0.362237 4.455551 -0.345824 -0.604080 0.041509 3.283679 4.023611 10.963454 2.271550 2.060169 6.213803 -4.799696 -5.325963 9.742367 0.042523 0.128010 -0.050706 
-13.792733 -2.547282 83.021782 0.237096 1.101678 -111.965242 3.752050 0.891632 1.285393 1.666447 0.424291 0.609861 1.666445 0.424291 0.609860 1.250253 0.316558 0.458553 16.063034 -0.634776 -1.169531 -6.356942 -0.733937 -2.358886 -10.342310 -9.930211 -2.505672 17.859058 -36.419354 -13.291961 66.495443 15.162057 77.757872 -39.824593 41.846267 65.511111 -6.879820 7.937853 -5.592328 22.512307 37.919008 11.212191 64.690361 -10.305627 -70.564344 -32.623897 -33.946105 -85.398825 1.507475 -2.464268 -10.729730 3.729858 -1.492454 -2.402644 -4.418954 0.362237 4.455551 -0.345824 -0.604080 0.041509 3.283679 4.023611 10.963454 2.271550 2.060169 6.213803 -4.799696 -5.325963 9.742367 0.042523 0.128010 -0.050706 
-13.766207 -2.451210 83.041084 0.184479 1.121772 -111.946432 3.711626 0.916868 1.258608 1.650510 0.431689 0.603623 1.650510 0.431690 0.603623 1.238304 0.322140 0.453886 16.120244 -0.589721 -1.161493 -6.249864 -0.655784 -2.327679 -10.262870 -9.898457 -2.536127 18.340552 -37.091622 -12.115410 66.702719 15.346445 76.308765 -42.730773 42.168495 68.622993 -6.928243 7.913148 -5.451697 23.195572 38.035295 10.337975 64.575013 -9.970218 -70.149943 -33.493725 -33.843376 -86.350407 1.625183 -2.524800 -10.906658 3.495559 -1.455618 -2.189227 -4.307837 0.566269 4.464096 -0.275267 -0.588937 0.042017 3.269918 4.016201 10.893914 2.300322 2.028356 6.197110 -4.771698 -5.274926 9.802272 0.019090 0.137897 -0.053843 
-13.724017 -2.344612 83.053955 0.124901 1.115880 -111.905765 3.666249 0.940106 1.222961 1.631531 0.436167 0.592096 1.631533 0.436167 0.592092 1.224066 0.325548 0.445236 16.168229 -0.536559 -1.150146 -6.159810 -0.563874 -2.287614 -10.155599 -9.887754 -2.584643 18.860708 -37.731194 -10.889581 66.902290 15.670843 74.804478 -45.672662 42.402514 71.677426 -6.948871 7.907932 -5.329816 23.755026 38.088488 9.538596 64.529804 -9.595431 -69.761257 -34.352669 -33.780695 -87.170071 1.707546 -2.594054 -11.027176 3.266312 -1.443698 -2.084551 -4.217485 0.770203 4.442189 -0.208918 -0.560415 0.042616 3.227724 4.003503 10.778810 2.310356 1.994958 6.209021 -4.739805 -5.228169 9.882795 0.012010 0.148097 -0.058292 
-13.665866 -2.232336 83.059441 0.051692 1.090151 -111.843064 3.612226 0.959711 1.169888 1.608525 0.439164 0.570273 1.608526 0.439164 0.570277 1.206797 0.327876 0.428864 16.215129 -0.469619 -1.126503 -6.071654 -0.451232 -2.220323 -9.981917 -9.864619 -2.632255 19.377832 -38.293462 -9.636611 67.118309 15.819126 73.397527 -48.328697 42.523518 74.369859 -6.884093 7.911774 -5.225262 24.097157 38.077717 8.873535 64.602340 -9.169520 -69.427227 -35.201040 -33.719725 -87.741662 1.763661 -2.650585 -11.076214 3.037782 -1.457718 -2.139677 -4.144937 0.961811 4.545486 -0.143000 -0.523006 0.043947 3.164440 3.987602 10.660317 2.296587 1.959475 6.206362 -4.698241 -5.175277 9.986276 0.019495 0.154888 -0.063903 
-13.603175 -2.119812 83.060387 -0.027517 1.054071 -111.760657 3.555865 0.980358 1.104191 1.582837 0.442260 0.543284 1.582838 0.442260 0.543288 1.187515 0.330290 0.408611 16.264009 -0.396434 -1.092601 -5.979901 -0.330876 -2.132166 -9.794118 -9.843184 -2.667711 19.867086 -38.707655 -8.465763 67.334334 15.863915 72.201575 -50.630413 42.589996 76.657091 -6.821150 7.926379 -5.137302 24.355575 38.032071 8.310953 64.745959 -8.628279 -69.151212 -36.007996 -33.674608 -88.214885 1.819698 -2.712943 -11.124397 2.777899 -1.480311 -2.210722 -4.069718 1.150481 4.611710 -0.079627 -0.481784 0.045541 3.095833 3.962737 10.563949 2.265328 1.923612 6.164013 -4.649104 -5.113802 9.962406 0.033845 0.158473 -0.070735 
-13.538844 -1.995968 83.059273 -0.105995 1.020847 -111.664830 3.507496 1.000220 1.033437 1.559741 0.447270 0.515197 1.559740 0.447270 0.515189 1.170178 0.334140 0.387540 16.317037 -0.322550 -1.053127 -5.880573 -0.211239 -2.033681 -9.677995 -9.834467 -2.686332 20.320940 -38.955663 -7.495175 67.538639 15.948205 71.291684 -52.480694 42.665545 78.401371 -6.790690 7.924674 -5.052947 24.633439 37.958008 7.781004 64.916495 -8.048947 -68.941662 -36.882820 -33.707428 -88.707089 1.898580 -2.780226 -11.209711 2.486052 -1.507167 -2.200592 -3.990755 1.325568 4.583492 -0.021135 -0.430321 0.046259 3.029956 3.942515 10.512360 2.233526 1.891811 6.090304 -4.595008 -5.051043 10.050772 0.042381 0.155025 -0.074483 
-13.477034 -1.877780 83.058113 -0.190907 0.994026 -111.570402 3.462430 1.025912 0.969993 1.538947 0.455125 0.491248 1.538947 0.455125 0.491244 1.154572 0.340109 0.369579 16.378097 -0.249223 -1.010383 -5.766466 -0.093823 -1.929559 -9.653280 -9.829587 -2.707232 20.655851 -39.027568 -6.792436 67.761719 16.058955 70.706139 -53.757222 42.765310 79.558911 -6.750197 7.904530 -4.983460 24.891433 37.855787 7.287044 65.092488 -7.588919 -68.817489 -37.720847 -33.736654 -89.129488 1.982716 -2.826017 -11.330603 2.195407 -1.547017 -2.103891 -3.913119 1.469529 4.500668 0.031511 -0.361164 0.045365 2.972980 3.918735 10.502999 2.195571 1.858512 6.008123 -4.531710 -4.968526 10.038416 0.044793 0.149845 -0.081846 
-13.411221 -1.756733 83.058670 -0.259608 0.984024 -111.490127 3.428309 1.051391 0.922220 1.524059 0.463232 0.473952 1.524060 0.463232 0.473947 1.143396 0.346245 0.356616 16.448233 -0.177174 -0.960427 -5.635724 0.018670 -1.812841 -9.747275 -9.838920 -2.735948 20.881847 -38.950742 -6.350661 68.024716 16.214067 70.388221 -54.564216 42.930597 80.247770 -6.713638 7.882833 -4.928783 25.141038 37.702644 6.838252 65.225738 -7.293772 -68.794622 -38.581840 -33.749529 -89.485136 2.077625 -2.864371 -11.463403 1.933000 -1.602190 -2.003027 -3.841616 1.572713 4.506271 0.071395 -0.273079 0.046799 2.935597 3.895251 10.536117 2.153236 1.819275 5.958188 -4.460221 -4.871474 9.952852 0.038575 0.136737 -0.087621 
-13.345453 -1.643840 83.061378 -0.313587 1.003755 -111.430281 3.418194 1.092465 0.897662 1.520459 0.476229 0.467421 1.520459 0.476229 0.467424 1.140703 0.356011 0.351754 16.528435 -0.118627 -0.905538 -5.486592 0.104811 -1.692054 -9.902926 -9.847913 -2.772207 20.985961 -38.836176 -6.086134 68.323134 16.318457 70.224071 -55.030219 43.099996 80.625616 -6.703718 7.859088 -4.906272 25.362229 37.532327 6.475170 65.292545 -7.089843 -68.829927 -39.243617 -33.755509 -89.750824 2.171993 -2.899596 -11.611550 1.727593 -1.654480 -1.927633 -3.792942 1.629831 4.511843 0.103430 -0.170160 0.043472 2.924789 3.870742 10.612669 2.122266 1.775779 5.950665 -4.387584 -4.759659 9.807344 0.022898 0.122765 -0.093512 
-13.273891 -1.530390 83.064232 -0.351946 1.046112 -111.389409 3.436956 1.142728 0.899953 1.529931 0.494341 0.471506 1.529931 0.494341 0.471502 1.147823 0.369578 0.354862 16.614457 -0.079434 -0.850367 -5.326902 0.155657 -1.577691 -9.966753 -9.827118 -2.799852 20.888477 -38.773925 -5.906077 68.662184 16.377433 70.085486 -55.375964 43.256141 80.898652 -6.733309 7.831413 -4.924097 25.486670 37.352228 6.206883 65.354672 -6.916601 -68.906104 -39.736357 -33.796077 -89.947868 2.269881 -2.939136 -11.800349 1.565943 -1.693860 -1.869461 -3.765790 1.649182 4.576559 0.129839 -0.068893 0.041288 2.934022 3.847434 10.718303 2.096212 1.734580 5.946729 -4.308429 -4.650129 9.736004 0.002892 0.108121 -0.095864 
-13.201676 -1.423603 83.064743 -0.385443 1.106927 -111.362143 3.475045 1.201254 0.918098 1.546816 0.516626 0.482656 1.546816 0.516626 0.482655 1.160515 0.386251 0.363297 16.712978 -0.060799 -0.795563 -5.144274 0.169171 -1.471326 -10.012384 -9.790167 -2.826493 20.837819 -38.765633 -5.700610 68.948526 16.378963 69.940140 -55.724163 43.386912 81.179032 -6.825113 7.804824 -4.930316 25.554393 37.190179 6.010527 65.438909 -6.767164 -68.983012 -40.112017 -33.823633 -90.090694 2.369219 -2.977928 -12.033160 1.433065 -1.713918 -1.784597 -3.751654 1.648286 4.711005 0.154879 0.015600 0.041776 2.959579 3.814853 10.808255 2.076331 1.695975 5.932700 -4.229832 -4.537310 9.594320 -0.010777 0.099288 -0.102053 
-13.126304 -1.311338 83.061241 -0.413074 1.173882 -111.342527 3.518826 1.260123 0.945512 1.565373 0.541263 0.497645 1.565373 0.541263 0.497653 1.174465 0.404677 0.374629 16.823804 -0.064442 -0.740252 -4.938962 0.141925 -1.371889 -10.045622 -9.764002 -2.849566 20.961835 -38.812560 -5.406254 69.104330 16.352933 69.761107 -56.133783 43.493958 81.519080 -6.899831 7.770409 -4.923631 25.553290 37.042728 5.849838 65.531635 -6.602076 -69.071941 -40.386584 -33.853573 -90.205789 2.470894 -3.029887 -12.282884 1.306883 -1.730128 -1.640202 -3.743178 1.661671 4.775388 0.178962 0.078783 0.042438 2.987523 3.788560 10.850378 2.061712 1.665180 5.916472 -4.153812 -4.446777 9.593246 -0.017180 0.094824 -0.104506 
-13.043978 -1.202194 83.054367 -0.446610 1.241211 -111.319625 3.561435 1.320664 0.974639 1.584090 0.566884 0.512234 1.584089 0.566883 0.512229 1.188534 0.423838 0.385651 16.936861 -0.082398 -0.686463 -4.729595 0.089272 -1.280180 -10.038361 -9.756381 -2.867929 21.219485 -38.877379 -5.067728 69.126207 16.373393 69.576323 -56.595060 43.583372 81.898585 -6.901122 7.741078 -4.916558 25.467832 36.928606 5.751918 65.615578 -6.484890 -69.159326 -40.613609 -33.892280 -90.365247 2.556599 -3.072707 -12.492121 1.201377 -1.745756 -1.522952 -3.749181 1.669366 4.824059 0.207641 0.131394 0.043949 3.002845 3.753386 10.827501 2.061069 1.645263 5.915373 -4.080122 -4.366190 9.645970 -0.014329 0.099109 -0.108445 
